<?xml version="1.0" encoding="UTF-8"?>
<svg width="2400px" height="1800px" viewBox="0 0 2400 1800" version="1.1" xmlns="http://www.w3.org/2000/svg" xmlns:xlink="http://www.w3.org/1999/xlink">
    <g id="Page-1" stroke="none" stroke-width="1" fill="none" fill-rule="evenodd">
        <path d="M580.645711,609.758344 C422.27991,615.04014 297.399871,746.32687 300.041135,904.75871 C302.6824,1063.19055 431.869266,1190.24166 590.323122,1190.24166 C748.776977,1190.24166 877.963844,1063.19055 880.605108,904.75871 C883.246373,746.32687 758.366333,615.04014 600.000532,609.758344 L580.645711,609.758344 Z M987.096963,609.758344 C828.731162,615.04014 703.851123,746.32687 706.492387,904.75871 C709.133652,1063.19055 838.320518,1190.24166 996.774374,1190.24166 C1155.22823,1190.24166 1284.4151,1063.19055 1287.05636,904.75871 C1289.69762,746.32687 1164.81759,615.04014 1006.45178,609.758344 L987.096963,609.758344 Z M1393.54822,609.758344 C1235.18241,615.04014 1110.30238,746.32687 1112.94364,904.75871 C1115.5849,1063.19055 1244.77177,1190.24166 1403.22563,1190.24166 C1561.67948,1190.24166 1690.86635,1063.19055 1693.50761,904.75871 C1696.14888,746.32687 1571.26884,615.04014 1412.90304,609.758344 L1393.54822,609.758344 Z M1799.99947,609.758344 C1641.63367,615.04014 1516.75363,746.32687 1519.39489,904.75871 C1522.03616,1063.19055 1651.22302,1190.24166 1809.67688,1190.24166 C1968.13073,1190.24166 2097.3176,1063.19055 2099.95886,904.75871 C2102.60013,746.32687 1977.72009,615.04014 1819.35429,609.758344 L1799.99947,609.758344 Z" id="Shape" stroke="#000000" stroke-width="67.7418754"></path>
    </g>
</svg>